<?xml version="1.0" standalone="no"?>
<!DOCTYPE svg PUBLIC "-//W3C//DTD SVG 20010904//EN"
 "http://www.w3.org/TR/2001/REC-SVG-20010904/DTD/svg10.dtd">
<svg version="1.0" xmlns="http://www.w3.org/2000/svg"
 width="700.000000pt" height="700.000000pt" viewBox="0 0 700.000000 700.000000"
 preserveAspectRatio="xMidYMid meet">
<metadata>
Created by potrace 1.11, written by Peter Selinger 2001-2013
</metadata>
<g transform="translate(0.000000,700.000000) scale(0.100000,-0.100000)"
fill="#000000" stroke="none">
<path d="M3327 6995 c-1 -1 -42 -5 -92 -9 -340 -23 -733 -115 -1055 -245 -155
-63 -579 -288 -588 -313 -2 -4 -8 -8 -13 -8 -13 0 -216 -148 -319 -233 -116
-96 -378 -361 -472 -477 -310 -385 -535 -825 -667 -1300 -27 -100 -79 -359
-87 -440 -3 -36 -8 -67 -9 -70 -17 -29 -25 -484 -12 -660 26 -363 117 -747
261 -1093 228 -551 633 -1070 1123 -1439 243 -184 469 -312 788 -449 54 -23
208 -78 270 -97 81 -24 250 -70 280 -75 11 -2 31 -7 45 -10 25 -6 118 -23 175
-32 17 -3 53 -8 80 -11 28 -3 55 -7 62 -9 74 -24 658 -24 793 -1 14 3 48 7 75
11 72 9 172 24 187 30 7 2 31 7 53 10 56 8 292 71 400 107 194 64 491 198 645
290 283 170 492 330 708 542 487 479 830 1110 967 1781 22 108 24 115 29 155
2 19 7 51 10 70 21 127 30 277 30 480 0 155 -9 333 -18 390 -3 14 -7 50 -11
80 -10 78 -12 95 -19 127 -3 15 -8 44 -11 63 -3 19 -15 73 -26 120 -11 47 -22
92 -24 100 -37 171 -154 480 -257 684 -465 916 -1280 1574 -2257 1822 -95 25
-189 47 -210 50 -20 3 -47 7 -61 9 -257 40 -330 47 -573 49 -108 2 -198 2
-200 1z"/>
</g>
</svg>
