<?xml version="1.0" standalone="no"?>
<!DOCTYPE svg PUBLIC "-//W3C//DTD SVG 20010904//EN"
 "http://www.w3.org/TR/2001/REC-SVG-20010904/DTD/svg10.dtd">
<svg version="1.0" xmlns="http://www.w3.org/2000/svg"
 width="500.000000pt" height="500.000000pt" viewBox="0 0 500.000000 500.000000"
 preserveAspectRatio="xMidYMid meet">
<metadata>
Created by potrace 1.11, written by Peter Selinger 2001-2013
</metadata>
<g transform="translate(0.000000,500.000000) scale(0.100000,-0.100000)"
fill="#000000" stroke="none">
<path d="M2447 4794 c-1 -1 -48 -4 -103 -8 -467 -27 -941 -217 -1304 -520
-368 -307 -619 -696 -749 -1159 -16 -57 -32 -120 -35 -138 -3 -19 -8 -44 -10
-55 -24 -115 -31 -215 -31 -414 0 -224 3 -262 35 -430 128 -681 579 -1286
1192 -1600 165 -85 405 -174 553 -204 50 -10 79 -16 110 -21 17 -3 41 -7 55
-10 100 -20 462 -27 595 -12 485 56 964 278 1312 608 318 302 543 678 647
1085 52 201 68 325 73 567 6 256 0 298 -51 348 -104 104 -260 86 -332 -37 -26
-44 -27 -51 -29 -222 -2 -152 -10 -288 -20 -342 -1 -8 -6 -35 -10 -60 -32
-198 -131 -459 -242 -640 -297 -482 -778 -800 -1338 -885 -86 -13 -135 -16
-255 -17 -127 0 -243 9 -327 26 -15 3 -43 8 -61 11 -114 19 -299 83 -447 155
-268 131 -463 292 -675 556 -47 58 -129 194 -180 299 -104 211 -162 413 -186
646 -9 81 -9 308 0 374 27 205 81 410 143 545 45 99 88 182 127 243 216 349
534 613 921 767 83 33 306 93 385 104 190 26 426 27 575 1 159 -28 281 -62
420 -118 140 -56 215 -51 289 19 91 87 76 251 -29 320 -69 45 -374 149 -500
169 -16 3 -52 10 -80 15 -71 13 -128 20 -220 26 -78 5 -215 10 -218 8z"/>
<path d="M4531 4367 c-19 -4 -44 -15 -55 -23 -12 -7 -461 -454 -998 -991
l-978 -978 -252 252 c-139 138 -269 259 -288 269 -71 35 -180 13 -237 -48 -56
-60 -71 -170 -31 -237 11 -20 168 -184 347 -365 357 -360 380 -378 473 -371
29 2 67 14 91 29 50 29 2146 2128 2167 2170 9 17 15 56 15 97 0 59 -4 73 -30
111 -51 72 -143 107 -224 85z"/>
</g>
</svg>
